<?xml version="1.0" encoding="iso-8859-1"?>
<!-- Generator: Adobe Illustrator 19.0.0, SVG Export Plug-In . SVG Version: 6.00 Build 0)  -->
<svg version="1.1" id="Capa_1" xmlns="http://www.w3.org/2000/svg" xmlns:xlink="http://www.w3.org/1999/xlink" x="0px" y="0px"
	 viewBox="0 0 512 512" style="enable-background:new 0 0 512 512;" xml:space="preserve">
<rect x="302" y="60" style="fill:#B7C3C8;" width="30" height="90"/>
<rect x="58" y="60" style="fill:#D1DEE4;" width="30" height="90"/>
<polygon style="fill:#FFD237;" points="390,0 195,0 153.136,52.5 195,105 390,105 "/>
<rect style="fill:#FFE17A;" width="195" height="105"/>
<path style="fill:#4FA811;" d="M409.824,186.757C399.672,155.799,371.021,135,338.53,135H195l-45,121l262.803-60L409.824,186.757z"
	/>
<polygon style="fill:#6BBF32;" points="195,135 0,135 0,196 195,256 "/>
<polygon style="fill:#5CD4FF;" points="227,384.401 449.344,309.401 412.803,196 302,196 "/>
<polygon style="fill:#AAE8FD;" points="302,196 0,196 0,309.401 302,384.401 "/>
<polygon style="fill:#4FA811;" points="512,340.729 449.344,309.401 195,309.401 135,384.451 195,459.5 512,459.5 "/>
<polygon style="fill:#6BBF32;" points="0,309.401 0,392 127.5,459.5 195,459.5 195,309.401 "/>
<rect y="392" style="fill:#D1DEE4;" width="127.5" height="67.5"/>
<path style="fill:#014059;" d="M127.5,512C90.28,512,60,481.72,60,444.5S90.28,377,127.5,377s67.5,30.28,67.5,67.5
	S164.72,512,127.5,512z"/>
<path style="fill:#FFFFFF;" d="M127.5,414.5c-16.542,0-30,13.458-30,30s13.458,30,30,30s30-13.458,30-30S144.042,414.5,127.5,414.5z
	"/>
<path style="fill:#012231;" d="M384.5,512c-37.22,0-67.5-30.28-67.5-67.5s30.28-67.5,67.5-67.5s67.5,30.28,67.5,67.5
	S421.72,512,384.5,512z"/>
<path style="fill:#D1DEE4;" d="M384.5,414.5c-16.542,0-30,13.458-30,30s13.458,30,30,30s30-13.458,30-30S401.042,414.5,384.5,414.5z
	"/>
<g>
</g>
<g>
</g>
<g>
</g>
<g>
</g>
<g>
</g>
<g>
</g>
<g>
</g>
<g>
</g>
<g>
</g>
<g>
</g>
<g>
</g>
<g>
</g>
<g>
</g>
<g>
</g>
<g>
</g>
</svg>
